# Blender v3.1.2 OBJ File: ''
# www.blender.org
mtllib space.mtl
o Cube_Cube.001
v -30.968018 -0.671912 -0.320454
v -30.968018 24.769476 -0.320450
v -30.943439 24.769476 -1.272573
v -30.943439 -0.671912 -1.272577
v 30.956581 24.769476 0.325358
v 30.956581 -0.671912 0.325354
v 30.932003 24.769476 1.277481
v 30.932003 -0.671912 1.277477
vt -0.070135 -0.725232
vt 0.630954 -0.725232
vt 0.630954 -0.024146
vt -0.070135 -0.024146
vt 0.630954 0.676939
vt -0.070135 0.676939
vt 0.630954 1.378024
vt -0.070135 1.378024
vt 0.630954 2.079112
vt -0.070135 2.079112
vt -0.771220 0.676939
vt -0.771220 1.378024
vt 1.332040 0.676939
vt 1.332040 1.378024
vn -0.9997 -0.0000 -0.0258
vn 0.0258 0.0000 -0.9997
vn 0.9997 0.0000 0.0258
vn -0.0258 -0.0000 0.9997
vn -0.0000 -1.0000 -0.0000
vn 0.0000 1.0000 0.0000
usemtl space1
s 1
f 1/1/1 2/2/1 3/3/1 4/4/1
f 4/4/2 3/3/2 5/5/2 6/6/2
f 6/6/3 5/5/3 7/7/3 8/8/3
f 8/8/4 7/7/4 2/9/4 1/10/4
f 4/11/5 6/6/5 8/8/5 1/12/5
f 5/5/6 3/13/6 2/14/6 7/7/6
